<svg xmlns="http://www.w3.org/2000/svg" version="1.1" xmlns:xlink="http://www.w3.org/1999/xlink" xmlns:svgjs="http://svgjs.dev/svgjs" width="1000" height="133" viewBox="0 0 1000 133"><g transform="matrix(1,0,0,1,-0.6060606060606233,-0.3987848586356364)"><svg viewBox="0 0 396 53" data-background-color="#111111" preserveAspectRatio="xMidYMid meet" height="133" width="1000" xmlns="http://www.w3.org/2000/svg" xmlns:xlink="http://www.w3.org/1999/xlink"><g id="tight-bounds" transform="matrix(1,0,0,1,0.2400000000000091,0.1589142669751027)"><svg viewBox="0 0 395.52 52.682171466049816" height="52.682171466049816" width="395.52"><g><svg viewBox="0 0 395.52 52.682171466049816" height="52.682171466049816" width="395.52"><g><svg viewBox="0 0 480.43912286931817 63.993164062499986" height="52.682171466049816" width="395.52"><g><svg viewBox="0 0 480.43912286931817 63.993164062499986" height="63.993164062499986" width="480.43912286931817"><g><svg viewBox="0 0 480.43912286931817 63.993164062499986" height="63.993164062499986" width="480.43912286931817"><g><svg viewBox="0 0 480.43912286931817 63.993164062499986" height="63.993164062499986" width="480.43912286931817"><g><svg><g></g><g></g></svg></g><g><svg><g></g><g><svg></svg></g></svg></g><g id="text-0"><svg viewBox="0 0 480.43912286931817 63.993164062499986" height="63.993164062499986" width="480.43912286931817"><g><svg xmlns="http://www.w3.org/2000/svg" xmlns:xlink="http://www.w3.org/1999/xlink" version="1.0" x="0" y="0" viewBox="1 3 48 44" enable-background="new 0 0 50 50" xml:space="preserve" height="63.993164062499986" width="69.81072443181817" class="icon-pn-0" data-fill-palette-color="accent" id="pn-0"><g fill="#ffffff" data-fill-palette-color="accent"><rect x="13" y="33" fill="#ffffff" width="4" height="12" data-fill-palette-color="accent"></rect><rect x="13" y="3" fill="#ffffff" width="27" height="4" data-fill-palette-color="accent"></rect><rect x="17" y="33" fill="#ffffff" width="22" height="4" data-fill-palette-color="accent"></rect><path fill="#ffffff" d="M44.721 25H25.412C23.016 25 21 23.1 21 21.063v-0.609C21 18.416 23.016 17 25.412 17h19.309C47.116 17 49 18.416 49 20.453v0.609C49 23.1 47.116 25 44.721 25zM25.412 19C24.14 19 23 19.534 23 20.453v0.609C23 21.981 24.14 23 25.412 23h19.309C45.992 23 47 21.981 47 21.063v-0.609C47 19.534 45.992 19 44.721 19H25.412z" data-fill-palette-color="accent"></path><path fill="#ffffff" d="M44.721 33H25.412C23.016 33 21 31.1 21 29.063v-0.609C21 26.416 23.016 25 25.412 25h19.309C47.116 25 49 26.416 49 28.453v0.609C49 31.1 47.116 33 44.721 33zM25.412 27C24.14 27 23 27.534 23 28.453v0.609C23 29.981 24.14 31 25.412 31h19.309C45.992 31 47 29.981 47 29.063v-0.609C47 27.534 45.992 27 44.721 27H25.412z" data-fill-palette-color="accent"></path><rect x="8" y="41" fill="#ffffff" width="14" height="6" data-fill-palette-color="accent"></rect><rect x="26" y="43" fill="#ffffff" width="5" height="4" data-fill-palette-color="accent"></rect><rect x="1" y="43" fill="#ffffff" width="5" height="4" data-fill-palette-color="accent"></rect><rect x="5" y="43" fill="#ffffff" width="23" height="3" data-fill-palette-color="accent"></rect><path fill="#ffffff" d="M20.22 8.649c0.285 0.786-0.119 1.656-0.906 1.942l-6.412 2.334c-0.786 0.286-1.656-0.12-1.943-0.907l0 0c-0.285-0.787 0.119-1.657 0.906-1.943l6.412-2.334C19.063 7.457 19.934 7.862 20.22 8.649L20.22 8.649z" data-fill-palette-color="accent"></path><path fill="#ffffff" d="M20.22 13.197c0.285 0.787-0.119 1.657-0.906 1.943l-6.412 2.334c-0.786 0.286-1.656-0.12-1.943-0.906l0 0c-0.285-0.787 0.119-1.657 0.906-1.943l6.412-2.334C19.063 12.005 19.934 12.41 20.22 13.197L20.22 13.197z" data-fill-palette-color="accent"></path><path fill="#ffffff" d="M20.22 17.746c0.285 0.787-0.119 1.657-0.906 1.942l-6.412 2.334c-0.786 0.287-1.656-0.12-1.943-0.906l0 0c-0.285-0.787 0.119-1.657 0.906-1.943l6.412-2.333C19.063 16.553 19.934 16.958 20.22 17.746L20.22 17.746z" data-fill-palette-color="accent"></path><path fill="#ffffff" d="M20.22 22.295c0.285 0.787-0.119 1.656-0.906 1.943l-6.412 2.333c-0.786 0.286-1.656-0.119-1.943-0.905l0 0c-0.285-0.788 0.119-1.658 0.906-1.945l6.412-2.333C19.063 21.102 19.934 21.507 20.22 22.295L20.22 22.295z" data-fill-palette-color="accent"></path><path fill="#ffffff" d="M20.22 26.844c0.285 0.786-0.119 1.656-0.906 1.942l-6.412 2.334c-0.786 0.286-1.656-0.12-1.943-0.906l0 0c-0.285-0.787 0.119-1.657 0.906-1.943l6.412-2.334C19.063 25.65 19.934 26.057 20.22 26.844L20.22 26.844z" data-fill-palette-color="accent"></path></g></svg></g><g transform="matrix(1,0,0,1,84.91912286931817,6.754602831754248)"><svg width="395.52" viewBox="0.98 -37.99 309.84 39.550000000000004" height="50.48395839899149" data-palette-color="#ffffff"><path d="M37.3-13.09L37.3-13.09Q36.89-9.42 35.38-6.6 33.86-3.78 31.49-2.01 29.13-0.24 26.11 0.66 23.1 1.56 19.53 1.56L19.53 1.56Q16.21 1.56 13.48 0.84 10.74 0.12 8.86-1.07 6.98-2.27 5.54-3.99 4.1-5.71 3.25-7.53 2.39-9.35 1.87-11.51 1.34-13.67 1.16-15.54 0.98-17.41 0.98-19.43L0.98-19.43 0.98-21.58Q1.22-25.15 2.64-27.99 4.05-30.83 6.08-32.58 8.11-34.33 10.72-35.49 13.33-36.65 15.8-37.1 18.26-37.55 20.7-37.55L20.7-37.55Q24.63-37.55 27.65-36.61 30.66-35.67 32.57-33.96 34.47-32.25 35.55-30.04 36.62-27.83 36.91-25.1L36.91-25.1 36.91-22.75Q36.91-21.97 31.54-21.97L31.54-21.97Q30.27-21.97 28.02-22.02 25.76-22.07 25.05-22.07L25.05-22.07Q24.93-22.07 24.68-22.05 24.44-22.02 24.32-22.02L24.32-22.02Q23.68-22.02 23.35-22.55 23.02-23.07 22.91-23.83 22.8-24.58 22.64-25.34 22.49-26.1 21.98-26.62 21.48-27.15 20.61-27.15 19.73-27.15 19.07-26.86 18.41-26.56 18.02-25.94 17.63-25.32 17.37-24.68 17.11-24.05 17-23.03 16.89-22.02 16.86-21.33 16.82-20.63 16.8-19.47 16.77-18.31 16.75-17.77L16.75-17.77Q16.75-17.48 16.7-16.7 16.65-15.92 16.65-15.43L16.65-15.43Q16.65-9.35 19.87-9.18L19.87-9.18Q20.75-9.18 21.31-9.81 21.88-10.45 22.08-11.23 22.29-12.01 22.56-12.88 22.83-13.75 23.14-14.06L23.14-14.06 36.43-14.06Q37.23-13.99 37.3-13.09ZM38.57-18.36L38.57-18.36 38.57-21.04Q38.82-24.46 40.06-27.28 41.31-30.1 43.22-32.03 45.14-33.96 47.65-35.29 50.17-36.62 52.91-37.23 55.66-37.84 58.59-37.84L58.59-37.84Q60.2-37.84 61.95-37.57 63.69-37.3 65.65-36.72 67.6-36.13 69.39-35 71.19-33.86 72.36-32.32L72.36-32.32Q74.78-29.37 75.86-26.14 76.95-22.9 76.95-18.95L76.95-18.95Q77.02-10.69 73.34-5.66L73.34-5.66 72.26-4.2Q70.85-2.25 68.21-0.94 65.57 0.37 62.94 0.87 60.3 1.37 57.61 1.37L57.61 1.37Q54.47 1.37 51.8 0.73 49.14 0.1 47.21-0.98 45.29-2.05 43.77-3.59 42.26-5.13 41.29-6.84 40.33-8.54 39.71-10.55 39.08-12.55 38.83-14.45 38.57-16.36 38.57-18.36ZM58.01-28.03L58.01-28.03Q57-28.03 56.21-27.56 55.42-27.1 54.92-26.44 54.42-25.78 54.05-24.67 53.68-23.56 53.51-22.67 53.34-21.78 53.24-20.42 53.15-19.07 53.13-18.32 53.12-17.58 53.12-16.41L53.12-16.41Q53.12-15.28 53.21-14.27 53.29-13.26 53.57-12.12 53.85-10.99 54.31-10.14 54.76-9.3 55.55-8.73 56.35-8.15 57.37-8.11L57.37-8.11Q58.44-8.11 59.27-8.46 60.1-8.81 60.67-9.36 61.23-9.91 61.62-10.84 62.01-11.77 62.22-12.62 62.42-13.48 62.53-14.75 62.64-16.02 62.67-16.93 62.69-17.85 62.69-19.24L62.69-19.24Q62.69-20.26 62.63-21.14 62.57-22.02 62.42-23.1 62.28-24.17 61.94-24.99 61.59-25.81 61.11-26.53 60.62-27.25 59.82-27.64 59.03-28.03 58.01-28.03ZM129.58-9.13L129.58-9.13Q129.58-8.69 129.63-7.78 129.68-6.86 129.71-6.03 129.73-5.2 129.74-4.19 129.76-3.17 129.67-2.36 129.58-1.54 129.41-0.82 129.24-0.1 128.89 0.29 128.54 0.68 128.02 0.68L128.02 0.68 116.89 0.68Q115.72-0.22 115.72-6.05L115.72-6.05Q115.72-8.18 115.74-11.17 115.77-14.16 115.77-15.43L115.77-15.43 115.77-17.14Q115.77-17.36 115.73-17.98 115.69-18.6 115.72-18.95L115.72-18.95Q114.74-15.41 113.33-8.81 111.91-2.22 111.37 0L111.37 0Q111.13 0.68 109.13 0.68L109.13 0.68 100.48 0.68Q98.9 0.68 98.63-0.15L98.63-0.15 96.28-10.35Q95.97-11.91 95.59-13.6 95.21-15.28 94.7-17.43 94.18-19.58 93.94-20.61L93.94-20.61Q93.65-12.79 93.65-8.69L93.65-8.69 93.65-4.39Q93.65-1.51 93.7-0.05L93.7-0.05Q93.55 0.49 93.16 0.49L93.16 0.49 90.86 0.49Q89.42 0.49 86.64 0.51 83.86 0.54 82.42 0.54L82.42 0.54Q81.1 0.54 81.1 0.1L81.1 0.1 81.1-36.13Q81.1-36.35 81.21-36.51 81.32-36.67 81.55-36.76 81.78-36.84 82-36.89 82.22-36.94 82.56-36.95 82.91-36.96 83.12-36.98 83.34-36.99 83.69-36.98 84.03-36.96 84.13-36.96L84.13-36.96 87.01-36.96Q93.96-36.96 96.81-36.77 99.65-36.57 101.17-36.57L101.17-36.57Q101.75-33.3 103.02-26.86L103.02-26.86 104.88-17.14 108.78-36.87Q108.78-36.87 108.98-36.82 109.17-36.77 109.27-36.77L109.27-36.77Q111.88-36.77 116.99-36.84 122.09-36.91 124.7-36.91L124.7-36.91 128.32-36.91Q129-36.84 129-35.55L129-35.55Q129.54-11.89 129.58-9.13ZM134.17-3.32L134.17-3.32 134.17-35.84Q134.17-36.01 134.33-36.13 134.49-36.25 134.83-36.3 135.17-36.35 135.43-36.38 135.69-36.4 136.16-36.41 136.64-36.43 136.81-36.43L136.81-36.43 156.63-36.43Q159.07-36.43 161.25-35.66 163.42-34.89 165.1-33.42 166.79-31.96 167.77-29.64 168.74-27.32 168.74-24.41L168.74-24.41Q168.74-22.27 168.24-20.48 167.74-18.7 166.92-17.44 166.11-16.19 164.92-15.19 163.74-14.18 162.5-13.57 161.27-12.96 159.78-12.54 158.29-12.11 157.04-11.91 155.78-11.72 154.39-11.62L154.39-11.62 149.7-11.62Q149.5-7.79 149.5-3.03L149.5-3.03 149.5-0.29Q149.43 0.59 148.67 0.59L148.67 0.59 134.81 0.59Q134.17-1.1 134.17-3.32ZM147.94-20.41L147.94-20.41 148.72-19.34Q149.72-19.34 150.64-19.48 151.56-19.63 152.43-20 153.31-20.36 153.95-20.94 154.58-21.51 154.97-22.4 155.36-23.29 155.36-24.41L155.36-24.41Q155.36-25.27 155.13-25.94 154.9-26.61 154.57-27.04 154.24-27.47 153.67-27.78 153.09-28.1 152.59-28.26 152.09-28.42 151.32-28.5 150.55-28.59 150.05-28.6 149.55-28.61 148.77-28.61L148.77-28.61Q147.94-28.22 147.94-20.41ZM206.78 0.1L206.78 0.1Q206.24 0.63 204.52 0.73 202.8 0.83 200.28 0.68 197.77 0.54 197.6 0.54L197.6 0.54Q195.94 0.54 195.2 0.49L195.2 0.49 192.76 0.49Q192.23 0.32 191.86-1.11 191.49-2.54 191.14-5.21 190.79-7.89 190.76-8.06L190.76-8.06Q190.66-10.47 189.98-11.24 189.3-12.01 187.49-12.01L187.49-12.01 186.42-12.01 186.42-0.1Q186.37 0.2 185.9 0.39 185.44 0.59 184.57 0.65 183.71 0.71 183.03 0.72 182.36 0.73 181.26 0.71 180.17 0.68 179.92 0.68L179.92 0.68 176.41 0.68Q173.43 0.68 171.91 0.73L171.91 0.73Q171.57 0.59 171.23 0.39L171.23 0.39 171.23-36.04Q171.23-36.72 173.18-36.72L173.18-36.72 194.47-36.72Q200.01-36.57 202.91-34.08 205.8-31.59 205.8-27.05L205.8-27.05Q205.8-21.14 199.84-18.41L199.84-18.41Q200.94-18.07 201.82-17.46 202.7-16.85 203.29-16.15 203.87-15.45 204.31-14.48 204.75-13.5 204.99-12.65 205.24-11.79 205.42-10.62 205.61-9.45 205.68-8.59 205.75-7.74 205.86-6.56 205.97-5.37 206.04-4.69L206.04-4.69 206.04-2.54Q206.12-2.15 206.5-1.44 206.87-0.73 206.97-0.39L206.97-0.39Q206.97 0.1 206.78 0.1ZM186.27-26.37L186.27-26.37Q186.27-24.9 186.29-24.19 186.32-23.49 186.56-22.34 186.81-21.19 187.29-20.7L187.29-20.7Q188.32-20.7 189.24-20.92 190.15-21.14 191.01-21.63 191.86-22.12 192.36-23.08 192.86-24.05 192.86-25.39L192.86-25.39Q192.86-26.15 192.59-26.72 192.32-27.29 191.81-27.64 191.3-27.98 190.8-28.19 190.3-28.39 189.58-28.48 188.86-28.56 188.44-28.59 188.03-28.61 187.44-28.61L187.44-28.61 186.86-28.61Q186.49-28.44 186.38-27.93 186.27-27.42 186.27-26.37ZM209.22-0.88L209.22-0.88 209.22-1.81Q209.22-5.98 209.31-14.14 209.41-22.29 209.41-26.46L209.41-26.46 209.41-36.57 237.83-36.57 237.83-28.56Q237.83-28.49 237.83-28.2 237.83-27.91 237.83-27.81 237.83-27.71 237.8-27.45 237.78-27.2 237.72-27.1 237.66-27 237.55-26.82 237.44-26.64 237.29-26.56 237.15-26.49 236.9-26.43 236.66-26.37 236.36-26.37L236.36-26.37 235.68-26.37Q229.36-26.37 224.16-26.56L224.16-26.56Q224.11-26.17 224-25.35 223.89-24.54 223.83-23.91 223.77-23.29 223.77-22.71L223.77-22.71 235.39-22.71Q236.12-22.71 236.36-22.51 236.61-22.31 236.61-21.88L236.61-21.88Q236.61-21.75 236.58-21.48 236.56-21.22 236.56-21.09L236.56-21.09Q236.56-19.92 236.63-17.63 236.71-15.33 236.71-14.16L236.71-14.16Q236.63-13.67 236.32-13.67L236.32-13.67Q236.17-13.67 236.07-13.77L236.07-13.77Q228.36-13.38 224.65-13.38L224.65-13.38 224.01-13.38 224.01-9.86Q226.18-9.86 230.3-10.06 234.41-10.25 236.46-10.25L236.46-10.25Q238.07-10.25 238.32-9.57L238.32-9.57 238.32-7.71Q238.32-6.54 238.37-4.25 238.42-1.95 238.42-0.78L238.42-0.78Q238.42 0.44 237.44 0.44L237.44 0.44Q236.17 0.44 233.53 0.42 230.9 0.39 229.53 0.39L229.53 0.39Q226.01 0.39 219.47 0.57 212.93 0.76 210 0.78L210 0.78 209.31 0Q209.22-0.68 209.22-0.88ZM256.63 1.46L256.63 1.46Q253.74 1.34 251.45 0.96 249.15 0.59 247.02-0.26 244.88-1.1 243.43-2.38 241.98-3.66 241.01-5.66 240.05-7.67 239.83-10.3L239.83-10.3Q239.83-10.77 240.32-10.84L240.32-10.84Q240.46-10.79 240.81-10.79L240.81-10.79Q242.83-10.79 246.96-10.89 251.08-10.99 253.11-10.99L253.11-10.99Q253.62-10.99 253.92-10.66 254.21-10.33 254.39-9.85 254.57-9.38 254.83-8.9 255.09-8.42 255.71-8.09 256.33-7.76 257.31-7.76L257.31-7.76Q258.51-7.76 259.42-8.44 260.34-9.11 260.34-10.25L260.34-10.25Q260.34-11.01 259.56-11.65 258.77-12.28 257.49-12.68 256.21-13.09 255.05-13.37 253.89-13.65 252.67-13.85 251.45-14.06 251.25-14.11L251.25-14.11Q245.32-15.72 242.72-18.12 240.12-20.51 240.12-24.66L240.12-24.66Q240.12-27.59 241.2-29.92 242.27-32.25 244-33.73 245.74-35.21 248.11-36.19 250.47-37.18 252.89-37.59 255.31-37.99 257.9-37.99L257.9-37.99Q264.76-37.99 268.83-35.45L268.83-35.45Q270.32-33.96 271.02-33.19 271.71-32.42 272.36-31.4 273.01-30.37 273.26-29.38 273.52-28.39 273.62-26.95L273.62-26.95 272.74-26.07Q267.73-25.88 261.51-25.88L261.51-25.88Q260.73-25.88 260.25-26.05 259.78-26.22 259.62-26.49 259.46-26.76 259.3-27.05 259.14-27.34 259.01-27.61 258.87-27.88 258.44-28.05 258.02-28.22 257.31-28.22L257.31-28.22Q257.11-28.22 256.69-28.15 256.26-28.08 255.69-27.92 255.11-27.76 254.7-27.43 254.28-27.1 254.28-26.66L254.28-26.66Q254.28-26.12 254.83-25.68 255.38-25.24 255.99-25.05 256.6-24.85 257.5-24.62 258.41-24.39 258.63-24.32L258.63-24.32Q263.95-22.97 264.98-22.66L264.98-22.66Q270.32-20.97 272.54-18.24L272.54-18.24Q274.59-15.7 274.59-11.87L274.59-11.87Q274.59-9.55 274-7.64 273.4-5.74 272.42-4.42 271.44-3.1 269.98-2.08 268.52-1.05 267.01-0.44 265.51 0.17 263.61 0.59 261.7 1 260.1 1.18 258.51 1.37 256.63 1.46ZM292.85 1.46L292.85 1.46Q289.97 1.34 287.68 0.96 285.38 0.59 283.25-0.26 281.11-1.1 279.66-2.38 278.21-3.66 277.24-5.66 276.28-7.67 276.06-10.3L276.06-10.3Q276.06-10.77 276.55-10.84L276.55-10.84Q276.69-10.79 277.03-10.79L277.03-10.79Q279.06-10.79 283.19-10.89 287.31-10.99 289.34-10.99L289.34-10.99Q289.85-10.99 290.14-10.66 290.44-10.33 290.62-9.85 290.8-9.38 291.06-8.9 291.32-8.42 291.94-8.09 292.56-7.76 293.54-7.76L293.54-7.76Q294.73-7.76 295.65-8.44 296.56-9.11 296.56-10.25L296.56-10.25Q296.56-11.01 295.78-11.65 295-12.28 293.72-12.68 292.44-13.09 291.28-13.37 290.12-13.65 288.9-13.85 287.68-14.06 287.48-14.11L287.48-14.11Q281.55-15.72 278.95-18.12 276.35-20.51 276.35-24.66L276.35-24.66Q276.35-27.59 277.42-29.92 278.5-32.25 280.23-33.73 281.96-35.21 284.33-36.19 286.7-37.18 289.12-37.59 291.54-37.99 294.12-37.99L294.12-37.99Q300.98-37.99 305.06-35.45L305.06-35.45Q306.55-33.96 307.25-33.19 307.94-32.42 308.59-31.4 309.24-30.37 309.49-29.38 309.75-28.39 309.85-26.95L309.85-26.95 308.97-26.07Q303.96-25.88 297.74-25.88L297.74-25.88Q296.96-25.88 296.48-26.05 296-26.22 295.84-26.49 295.69-26.76 295.53-27.05 295.37-27.34 295.23-27.61 295.1-27.88 294.67-28.05 294.25-28.22 293.54-28.22L293.54-28.22Q293.34-28.22 292.91-28.15 292.49-28.08 291.91-27.92 291.34-27.76 290.92-27.43 290.51-27.1 290.51-26.66L290.51-26.66Q290.51-26.12 291.06-25.68 291.61-25.24 292.22-25.05 292.83-24.85 293.73-24.62 294.64-24.39 294.86-24.32L294.86-24.32Q300.18-22.97 301.2-22.66L301.2-22.66Q306.55-20.97 308.77-18.24L308.77-18.24Q310.82-15.7 310.82-11.87L310.82-11.87Q310.82-9.55 310.22-7.64 309.63-5.74 308.65-4.42 307.67-3.1 306.21-2.08 304.74-1.05 303.24-0.44 301.74 0.17 299.84 0.59 297.93 1 296.33 1.18 294.73 1.37 292.85 1.46Z" opacity="1" transform="matrix(1,0,0,1,0,0)" fill="#ffffff" class="undefined-text-0" data-fill-palette-color="primary"></path></svg></g></svg></g></svg></g></svg></g></svg></g></svg></g></svg></g><defs></defs></svg><rect width="395.52" height="52.682171466049816" fill="none" stroke="none" visibility="hidden"></rect></g></svg></g></svg>