<?xml version="1.0" encoding="iso-8859-1"?>
<!-- Generator: Adobe Illustrator 19.0.0, SVG Export Plug-In . SVG Version: 6.00 Build 0)  -->
<svg version="1.1" id="Layer_1" xmlns="http://www.w3.org/2000/svg" xmlns:xlink="http://www.w3.org/1999/xlink" x="0px" y="0px"
	 viewBox="0 0 512 512" style="enable-background:new 0 0 512 512;" xml:space="preserve">
<path style="fill:#2D2D2D;" d="M0,355.2v-324c0.104-5.704,4.696-10.296,10.4-10.4h491.2c5.704,0.104,10.296,4.696,10.4,10.4v324H0z"
	/>
<g>
	<path style="fill:#BCBCBC;" d="M512,355.2v41.6c-0.104,5.704-4.696,10.296-10.4,10.4H10.4c-5.704-0.104-10.296-4.696-10.4-10.4
		v-41.6H512z"/>
	<rect x="146.4" y="480.8" style="fill:#BCBCBC;" width="219.2" height="10.4"/>
</g>
<polygon style="fill:#2D2D2D;" points="328.8,480.8 183.2,480.8 193.6,407.2 318.4,407.2 "/>
<rect x="20.8" y="41.6" style="fill:#FFFFFF;" width="470.4" height="292.8"/>
<polygon points="318.4,407.2 193.6,407.2 187.792,448.28 320.272,420.424 "/>
<g>
	<rect x="99" y="225.52" style="fill:#999999;" width="314" height="12"/>
	<rect x="156.136" y="265.44" style="fill:#999999;" width="199.736" height="12"/>
</g>
<g>
	<polygon style="fill:#E21B1B;" points="82.216,144.568 73.408,171.68 96.464,154.92 119.504,171.68 110.712,144.568 
		133.752,127.824 105.272,127.824 96.464,100.728 87.656,127.824 59.16,127.824 	"/>
	<polygon style="fill:#E21B1B;" points="185.04,127.824 176.232,100.728 167.424,127.824 138.928,127.824 161.984,144.568 
		153.176,171.68 176.232,154.92 199.288,171.68 190.48,144.568 213.536,127.824 	"/>
	<polygon style="fill:#E21B1B;" points="264.808,127.824 256,100.728 247.192,127.824 218.696,127.824 241.752,144.568 
		232.944,171.68 256,154.92 279.056,171.68 270.248,144.568 293.304,127.824 	"/>
	<polygon style="fill:#E21B1B;" points="344.576,127.824 335.768,100.728 326.96,127.824 298.464,127.824 321.52,144.568 
		312.712,171.68 335.768,154.92 358.824,171.68 350.016,144.568 373.072,127.824 	"/>
	<polygon style="fill:#E21B1B;" points="424.344,127.824 415.536,100.728 406.728,127.824 378.248,127.824 401.288,144.568 
		392.48,171.68 415.536,154.92 438.592,171.68 429.784,144.568 452.84,127.824 	"/>
</g>
<g>
</g>
<g>
</g>
<g>
</g>
<g>
</g>
<g>
</g>
<g>
</g>
<g>
</g>
<g>
</g>
<g>
</g>
<g>
</g>
<g>
</g>
<g>
</g>
<g>
</g>
<g>
</g>
<g>
</g>
</svg>
