<?xml version="1.0" encoding="iso-8859-1"?>
<!-- Generator: Adobe Illustrator 19.0.0, SVG Export Plug-In . SVG Version: 6.00 Build 0)  -->
<svg version="1.1" id="Layer_1" xmlns="http://www.w3.org/2000/svg" xmlns:xlink="http://www.w3.org/1999/xlink" x="0px" y="0px"
	 viewBox="0 0 512.001 512.001" style="enable-background:new 0 0 512.001 512.001;" xml:space="preserve">
<path style="fill:#595959;" d="M256,0.001c-141.385,0-256,114.616-256,256c0,117.857,79.643,217.112,188.044,246.883l314.84-314.834
	C473.115,79.645,373.858,0.001,256,0.001z"/>
<path style="fill:#383838;" d="M502.866,188.054l-89.46-89.46L98.592,413.408l89.458,89.458c21.641,5.944,44.422,9.135,67.951,9.135
	c141.384,0,256-114.616,256-256C512,232.473,508.81,209.693,502.866,188.054z"/>
<path style="fill:#FFD652;" d="M256,33.392L130.178,256.001L256,478.609c122.943,0,222.609-99.665,222.609-222.609
	S378.943,33.392,256,33.392z"/>
<g>
	<path style="fill:#FBE287;" d="M33.391,256.001c0,122.943,99.665,222.609,222.609,222.609V33.392
		C133.057,33.392,33.391,133.057,33.391,256.001z"/>
	<path style="fill:#FBE287;" d="M256,55.653L142.76,256.001L256,456.348c110.649,0,200.348-89.699,200.348-200.348
		S366.649,55.653,256,55.653z"/>
</g>
<path style="fill:#F7EDBC;" d="M55.652,256.001c0,110.649,89.699,200.348,200.348,200.348V55.653
	C145.351,55.653,55.652,145.352,55.652,256.001z"/>
<path style="fill:#FB9D46;" d="M256,77.914L155.342,256.001L256,434.087c98.355,0,178.087-79.732,178.087-178.087
	S354.355,77.914,256,77.914z"/>
<path style="fill:#FDBA4C;" d="M77.913,256.001c0,98.355,79.733,178.087,178.087,178.087V77.914
	C157.646,77.914,77.913,157.645,77.913,256.001z"/>
<polygon style="fill:#FFD652;" points="404.197,207.841 332.502,280.844 347.583,382.05 255.989,336.445 224.474,227.862 
	255.989,100.174 303.283,190.914 "/>
<polygon style="fill:#FBE287;" points="255.989,100.174 255.989,336.445 164.417,382.05 179.476,280.844 107.803,207.841 
	208.717,190.914 "/>
<polygon style="fill:#F7EDBC;" points="358.377,222.727 288.667,211.034 255.993,148.346 222.599,229.961 255.988,311.576 
	319.27,343.085 308.85,273.156 "/>
<polygon style="fill:#FFFFFF;" points="223.336,211.034 153.616,222.728 203.126,273.156 192.72,343.085 255.988,311.576 
	255.993,148.346 "/>
<g>
</g>
<g>
</g>
<g>
</g>
<g>
</g>
<g>
</g>
<g>
</g>
<g>
</g>
<g>
</g>
<g>
</g>
<g>
</g>
<g>
</g>
<g>
</g>
<g>
</g>
<g>
</g>
<g>
</g>
</svg>
